<?xml version="1.0" standalone="no"?>
<!DOCTYPE svg PUBLIC "-//W3C//DTD SVG 20010904//EN"
 "http://www.w3.org/TR/2001/REC-SVG-20010904/DTD/svg10.dtd">
<svg version="1.0" xmlns="http://www.w3.org/2000/svg"
 width="32.000000pt" height="32.000000pt" viewBox="0 0 32.000000 32.000000"
 preserveAspectRatio="xMidYMid meet">

<g transform="translate(0.000000,32.000000) scale(0.100000,-0.100000)"
fill="#000000" stroke="none">
<path d="M90 161 c0 -52 4 -80 10 -76 5 3 10 29 10 57 l0 51 25 -23 25 -23 25
23 25 23 0 -51 c0 -28 5 -54 10 -57 6 -4 10 24 10 76 l0 83 -35 -34 -35 -34
-35 34 -35 34 0 -83z"/>
<path d="M120 143 c0 -5 9 -18 20 -28 19 -17 21 -17 40 0 11 10 20 23 20 28 0
6 -9 2 -20 -8 -19 -17 -21 -17 -40 0 -11 10 -20 14 -20 8z"/>
</g>
</svg>
